<svg id="visual" viewBox="0 0 1920 1080" width="1920" height="1080" xmlns="http://www.w3.org/2000/svg" xmlns:xlink="http://www.w3.org/1999/xlink" version="1.1"><rect x="0" y="0" width="1920" height="1080" fill="#001220"></rect><defs><linearGradient id="grad1_0" x1="43.8%" y1="100%" x2="100%" y2="0%"><stop offset="14.444444444444446%" stop-color="#001220" stop-opacity="1"></stop><stop offset="85.55555555555554%" stop-color="#001220" stop-opacity="1"></stop></linearGradient></defs><defs><linearGradient id="grad2_0" x1="0%" y1="100%" x2="56.3%" y2="0%"><stop offset="14.444444444444446%" stop-color="#001220" stop-opacity="1"></stop><stop offset="85.55555555555554%" stop-color="#001220" stop-opacity="1"></stop></linearGradient></defs><g transform="translate(1920, 1080)"><path d="M-432 0C-424.7 -82.4 -417.3 -164.8 -374.1 -216C-330.9 -267.2 -251.8 -287 -183.5 -317.8C-115.2 -348.6 -57.6 -390.3 0 -432L0 0Z" fill="#FBAE3C"></path></g><g transform="translate(0, 0)"><path d="M432 0C423.5 80.5 415.1 160.9 374.1 216C333.2 271.1 259.8 300.8 192 332.6C124.2 364.3 62.1 398.2 0 432L0 0Z" fill="#FBAE3C"></path></g></svg>